<mxfile host="app.diagrams.net" modified="2022-09-22T15:38:39.175Z" agent="5.0 (X11; Linux x86_64) AppleWebKit/537.36 (KHTML, like Gecko) Chrome/101.0.0.0 Safari/537.36" etag="nlawRhY-QOgHONc0tw3w" version="20.3.3" type="github" pages="3">
  <diagram id="xbcVloasIDP0w_q_Y2k0" name="Page-1">
    <mxGraphModel dx="1315" dy="263" grid="1" gridSize="10" guides="1" tooltips="1" connect="1" arrows="1" fold="1" page="0" pageScale="1" pageWidth="1169" pageHeight="827" math="0" shadow="0">
      <root>
        <mxCell id="0" />
        <mxCell id="1" parent="0" />
        <mxCell id="XyE7iJVtoOSYU-6w5UKD-3" value="&lt;font face=&quot;Georgia&quot;&gt;Original&lt;br&gt;dataset&lt;/font&gt;" style="shape=cylinder3;whiteSpace=wrap;html=1;boundedLbl=1;backgroundOutline=1;size=15;fillColor=#fa6800;fontColor=#000000;strokeColor=#C73500;" vertex="1" parent="1">
          <mxGeometry x="50" y="585" width="100" height="130" as="geometry" />
        </mxCell>
        <mxCell id="XyE7iJVtoOSYU-6w5UKD-4" value="" style="endArrow=none;html=1;rounded=0;" edge="1" parent="1">
          <mxGeometry width="50" height="50" relative="1" as="geometry">
            <mxPoint x="150" y="660" as="sourcePoint" />
            <mxPoint x="200" y="660" as="targetPoint" />
            <Array as="points" />
          </mxGeometry>
        </mxCell>
        <mxCell id="XyE7iJVtoOSYU-6w5UKD-17" value="&lt;font face=&quot;Georgia&quot;&gt;AWN&lt;/font&gt;" style="rounded=1;whiteSpace=wrap;html=1;fillColor=#d5e8d4;strokeColor=#82b366;" vertex="1" parent="1">
          <mxGeometry x="290" y="540" width="50" height="30" as="geometry" />
        </mxCell>
        <mxCell id="XyE7iJVtoOSYU-6w5UKD-18" value="&lt;font face=&quot;Georgia&quot;&gt;ARG&lt;/font&gt;" style="rounded=1;whiteSpace=wrap;html=1;fillColor=#d5e8d4;strokeColor=#82b366;" vertex="1" parent="1">
          <mxGeometry x="290" y="590" width="50" height="30" as="geometry" />
        </mxCell>
        <mxCell id="XyE7iJVtoOSYU-6w5UKD-19" value="&lt;font face=&quot;Georgia&quot;&gt;ATS&lt;/font&gt;" style="rounded=1;whiteSpace=wrap;html=1;fillColor=#d5e8d4;strokeColor=#82b366;" vertex="1" parent="1">
          <mxGeometry x="290" y="640" width="50" height="30" as="geometry" />
        </mxCell>
        <mxCell id="XyE7iJVtoOSYU-6w5UKD-20" value="&lt;font face=&quot;Georgia&quot;&gt;APS&lt;/font&gt;" style="rounded=1;whiteSpace=wrap;html=1;fillColor=#d5e8d4;strokeColor=#82b366;" vertex="1" parent="1">
          <mxGeometry x="290" y="690" width="50" height="30" as="geometry" />
        </mxCell>
        <mxCell id="XyE7iJVtoOSYU-6w5UKD-21" value="&lt;font face=&quot;Georgia&quot;&gt;AIP&lt;/font&gt;" style="rounded=1;whiteSpace=wrap;html=1;fillColor=#d5e8d4;strokeColor=#82b366;" vertex="1" parent="1">
          <mxGeometry x="290" y="740" width="50" height="30" as="geometry" />
        </mxCell>
        <mxCell id="XyE7iJVtoOSYU-6w5UKD-25" value="" style="curved=1;endArrow=none;html=1;rounded=0;" edge="1" parent="1">
          <mxGeometry width="50" height="50" relative="1" as="geometry">
            <mxPoint x="240" y="720" as="sourcePoint" />
            <mxPoint x="230" y="610" as="targetPoint" />
            <Array as="points">
              <mxPoint x="200" y="695" />
              <mxPoint x="200" y="635" />
            </Array>
          </mxGeometry>
        </mxCell>
        <mxCell id="XyE7iJVtoOSYU-6w5UKD-26" value="" style="endArrow=classic;html=1;rounded=0;entryX=0;entryY=0.333;entryDx=0;entryDy=0;entryPerimeter=0;" edge="1" parent="1" target="XyE7iJVtoOSYU-6w5UKD-18">
          <mxGeometry width="50" height="50" relative="1" as="geometry">
            <mxPoint x="200" y="660" as="sourcePoint" />
            <mxPoint x="300" y="650" as="targetPoint" />
          </mxGeometry>
        </mxCell>
        <mxCell id="XyE7iJVtoOSYU-6w5UKD-27" value="" style="endArrow=classic;html=1;rounded=0;entryX=-0.01;entryY=0.656;entryDx=0;entryDy=0;entryPerimeter=0;" edge="1" parent="1" target="XyE7iJVtoOSYU-6w5UKD-19">
          <mxGeometry width="50" height="50" relative="1" as="geometry">
            <mxPoint x="200" y="660" as="sourcePoint" />
            <mxPoint x="280" y="660" as="targetPoint" />
          </mxGeometry>
        </mxCell>
        <mxCell id="XyE7iJVtoOSYU-6w5UKD-28" value="" style="endArrow=classic;html=1;rounded=0;entryX=0;entryY=0.667;entryDx=0;entryDy=0;entryPerimeter=0;" edge="1" parent="1" target="XyE7iJVtoOSYU-6w5UKD-20">
          <mxGeometry width="50" height="50" relative="1" as="geometry">
            <mxPoint x="200" y="660" as="sourcePoint" />
            <mxPoint x="290" y="670" as="targetPoint" />
          </mxGeometry>
        </mxCell>
        <mxCell id="XyE7iJVtoOSYU-6w5UKD-29" value="" style="endArrow=classic;html=1;rounded=0;entryX=0;entryY=0.333;entryDx=0;entryDy=0;entryPerimeter=0;" edge="1" parent="1" target="XyE7iJVtoOSYU-6w5UKD-21">
          <mxGeometry width="50" height="50" relative="1" as="geometry">
            <mxPoint x="240" y="720" as="sourcePoint" />
            <mxPoint x="300" y="680" as="targetPoint" />
          </mxGeometry>
        </mxCell>
        <mxCell id="XyE7iJVtoOSYU-6w5UKD-31" value="" style="endArrow=classic;html=1;rounded=0;entryX=0;entryY=0.333;entryDx=0;entryDy=0;entryPerimeter=0;" edge="1" parent="1" target="XyE7iJVtoOSYU-6w5UKD-17">
          <mxGeometry width="50" height="50" relative="1" as="geometry">
            <mxPoint x="230" y="610" as="sourcePoint" />
            <mxPoint x="280" y="560" as="targetPoint" />
          </mxGeometry>
        </mxCell>
        <mxCell id="XyE7iJVtoOSYU-6w5UKD-32" value="&lt;i&gt;&lt;font face=&quot;Georgia&quot;&gt;Process 1&lt;/font&gt;&lt;/i&gt;" style="rounded=0;whiteSpace=wrap;html=1;strokeColor=#666666;fillColor=#f5f5f5;fontColor=#333333;" vertex="1" parent="1">
          <mxGeometry x="80" y="460" width="100" height="30" as="geometry" />
        </mxCell>
        <mxCell id="XyE7iJVtoOSYU-6w5UKD-35" value="" style="endArrow=classic;html=1;rounded=0;exitX=1;exitY=0.333;exitDx=0;exitDy=0;exitPerimeter=0;dashed=1;" edge="1" parent="1" source="XyE7iJVtoOSYU-6w5UKD-17">
          <mxGeometry width="50" height="50" relative="1" as="geometry">
            <mxPoint x="410" y="630" as="sourcePoint" />
            <mxPoint x="400" y="650" as="targetPoint" />
          </mxGeometry>
        </mxCell>
        <mxCell id="XyE7iJVtoOSYU-6w5UKD-36" value="" style="endArrow=classic;html=1;rounded=0;exitX=1;exitY=0.333;exitDx=0;exitDy=0;exitPerimeter=0;dashed=1;" edge="1" parent="1">
          <mxGeometry width="50" height="50" relative="1" as="geometry">
            <mxPoint x="340" y="604.9999999999999" as="sourcePoint" />
            <mxPoint x="400" y="650" as="targetPoint" />
          </mxGeometry>
        </mxCell>
        <mxCell id="XyE7iJVtoOSYU-6w5UKD-37" value="&lt;font face=&quot;Georgia&quot; style=&quot;font-size: 14px;&quot;&gt;Add&lt;/font&gt;" style="shape=cylinder3;whiteSpace=wrap;html=1;boundedLbl=1;backgroundOutline=1;size=15;fillColor=#d5e8d4;strokeColor=#82b366;" vertex="1" parent="1">
          <mxGeometry x="400" y="585" width="100" height="130" as="geometry" />
        </mxCell>
        <mxCell id="XyE7iJVtoOSYU-6w5UKD-38" value="" style="endArrow=classic;html=1;rounded=0;exitX=1;exitY=0.5;exitDx=0;exitDy=0;dashed=1;" edge="1" parent="1" source="XyE7iJVtoOSYU-6w5UKD-19">
          <mxGeometry width="50" height="50" relative="1" as="geometry">
            <mxPoint x="425" y="800" as="sourcePoint" />
            <mxPoint x="400" y="650" as="targetPoint" />
          </mxGeometry>
        </mxCell>
        <mxCell id="XyE7iJVtoOSYU-6w5UKD-42" value="" style="endArrow=classic;html=1;rounded=0;exitX=1;exitY=0.5;exitDx=0;exitDy=0;dashed=1;" edge="1" parent="1" source="XyE7iJVtoOSYU-6w5UKD-20">
          <mxGeometry width="50" height="50" relative="1" as="geometry">
            <mxPoint x="354" y="714.9999999999999" as="sourcePoint" />
            <mxPoint x="400" y="650" as="targetPoint" />
          </mxGeometry>
        </mxCell>
        <mxCell id="XyE7iJVtoOSYU-6w5UKD-43" value="" style="endArrow=classic;html=1;rounded=0;exitX=1;exitY=0.5;exitDx=0;exitDy=0;dashed=1;" edge="1" parent="1" source="XyE7iJVtoOSYU-6w5UKD-21">
          <mxGeometry width="50" height="50" relative="1" as="geometry">
            <mxPoint x="340" y="749.9999999999999" as="sourcePoint" />
            <mxPoint x="400" y="650" as="targetPoint" />
          </mxGeometry>
        </mxCell>
        <mxCell id="XyE7iJVtoOSYU-6w5UKD-44" value="" style="endArrow=none;html=1;rounded=0;strokeWidth=5;" edge="1" parent="1">
          <mxGeometry width="50" height="50" relative="1" as="geometry">
            <mxPoint x="540" y="680" as="sourcePoint" />
            <mxPoint x="540" y="640" as="targetPoint" />
            <Array as="points">
              <mxPoint x="540" y="660" />
            </Array>
          </mxGeometry>
        </mxCell>
        <mxCell id="XyE7iJVtoOSYU-6w5UKD-45" value="" style="endArrow=none;html=1;rounded=0;strokeWidth=5;" edge="1" parent="1">
          <mxGeometry width="50" height="50" relative="1" as="geometry">
            <mxPoint x="560" y="660" as="sourcePoint" />
            <mxPoint x="520" y="660" as="targetPoint" />
            <Array as="points">
              <mxPoint x="540" y="660" />
            </Array>
          </mxGeometry>
        </mxCell>
        <mxCell id="XyE7iJVtoOSYU-6w5UKD-46" value="&lt;font face=&quot;Georgia&quot;&gt;Original&lt;br&gt;dataset&lt;/font&gt;" style="shape=cylinder3;whiteSpace=wrap;html=1;boundedLbl=1;backgroundOutline=1;size=15;fillColor=#fa6800;strokeColor=#C73500;fontColor=#000000;" vertex="1" parent="1">
          <mxGeometry x="570" y="585" width="100" height="130" as="geometry" />
        </mxCell>
        <mxCell id="XyE7iJVtoOSYU-6w5UKD-47" value="" style="endArrow=classic;html=1;rounded=0;strokeWidth=5;" edge="1" parent="1">
          <mxGeometry width="50" height="50" relative="1" as="geometry">
            <mxPoint x="680" y="660" as="sourcePoint" />
            <mxPoint x="720" y="660" as="targetPoint" />
          </mxGeometry>
        </mxCell>
        <mxCell id="XyE7iJVtoOSYU-6w5UKD-48" value="&lt;font face=&quot;Georgia&quot;&gt;Augmented&amp;nbsp;&lt;br&gt;dataset&amp;nbsp;&lt;/font&gt;" style="shape=cylinder3;whiteSpace=wrap;html=1;boundedLbl=1;backgroundOutline=1;size=15;fillColor=#dae8fc;strokeColor=#6c8ebf;" vertex="1" parent="1">
          <mxGeometry x="730" y="580" width="100" height="130" as="geometry" />
        </mxCell>
        <mxCell id="XyE7iJVtoOSYU-6w5UKD-49" value="&lt;i&gt;&lt;font style=&quot;font-size: 18px;&quot; face=&quot;Georgia&quot;&gt;X&lt;br&gt;#1424&lt;br&gt;&lt;/font&gt;&lt;/i&gt;" style="rounded=0;whiteSpace=wrap;html=1;strokeColor=#FFFFFF;" vertex="1" parent="1">
          <mxGeometry x="71" y="730" width="50" height="20" as="geometry" />
        </mxCell>
        <mxCell id="XyE7iJVtoOSYU-6w5UKD-50" value="&lt;i&gt;&lt;font style=&quot;font-size: 18px;&quot; face=&quot;Georgia&quot;&gt;6*X&lt;br&gt;#8544&lt;br&gt;&lt;/font&gt;&lt;/i&gt;" style="rounded=0;whiteSpace=wrap;html=1;strokeColor=#FFFFFF;" vertex="1" parent="1">
          <mxGeometry x="755" y="740" width="50" height="20" as="geometry" />
        </mxCell>
        <mxCell id="XyE7iJVtoOSYU-6w5UKD-51" value="&lt;i&gt;&lt;font style=&quot;font-size: 18px;&quot; face=&quot;Georgia&quot;&gt;Audio Data Augmentation&amp;nbsp;&lt;/font&gt;&lt;/i&gt;" style="rounded=0;whiteSpace=wrap;html=1;strokeColor=#666666;fillColor=#f5f5f5;fontColor=#333333;" vertex="1" parent="1">
          <mxGeometry x="340" y="820" width="250" height="20" as="geometry" />
        </mxCell>
        <mxCell id="8n8dZ3kyWhdcgZ-hSgCk-1" value="&lt;font style=&quot;font-size: 13px;&quot;&gt;&lt;span style=&quot;white-space: pre;&quot;&gt;	&lt;/span&gt;&lt;span style=&quot;white-space: pre;&quot;&gt;	&lt;/span&gt;&lt;span style=&quot;white-space: pre;&quot;&gt;	&lt;/span&gt;&lt;span style=&quot;white-space: pre;&quot;&gt;	&lt;/span&gt;AIP: Add Invert Polarity&lt;/font&gt;" style="text;html=1;align=center;verticalAlign=middle;resizable=0;points=[];autosize=1;strokeColor=none;fillColor=none;fontSize=18;fontFamily=Georgia;" vertex="1" parent="1">
          <mxGeometry x="290" y="450" width="260" height="40" as="geometry" />
        </mxCell>
      </root>
    </mxGraphModel>
  </diagram>
  <diagram id="5akbNSl25G_iMt7MBCtN" name="Page-2">
    <mxGraphModel dx="1715" dy="663" grid="1" gridSize="10" guides="1" tooltips="1" connect="1" arrows="1" fold="1" page="0" pageScale="1" pageWidth="1169" pageHeight="827" math="0" shadow="0">
      <root>
        <mxCell id="0" />
        <mxCell id="1" parent="0" />
        <mxCell id="jCjwUt0B32HQbpiLHfgP-1" value="&lt;font face=&quot;Georgia&quot;&gt;Original&lt;br&gt;dataset&lt;/font&gt;" style="shape=cylinder3;whiteSpace=wrap;html=1;boundedLbl=1;backgroundOutline=1;size=15;fillColor=#fa6800;fontColor=#000000;strokeColor=#C73500;" vertex="1" parent="1">
          <mxGeometry y="550" width="120" height="120" as="geometry" />
        </mxCell>
        <mxCell id="pk4qYd-pC2LTZVjaMkFs-1" value="&lt;i&gt;&lt;font style=&quot;font-size: 18px;&quot; face=&quot;Georgia&quot;&gt;Process 2&lt;/font&gt;&lt;/i&gt;" style="rounded=0;whiteSpace=wrap;html=1;strokeColor=#666666;fillColor=#f5f5f5;fontColor=#333333;" vertex="1" parent="1">
          <mxGeometry y="120" width="120" height="40" as="geometry" />
        </mxCell>
        <mxCell id="j8eH5AvT_JrjKE0dpJpr-1" value="" style="endArrow=classic;html=1;rounded=0;exitX=0.5;exitY=0;exitDx=0;exitDy=0;exitPerimeter=0;" edge="1" parent="1" source="jCjwUt0B32HQbpiLHfgP-1">
          <mxGeometry width="50" height="50" relative="1" as="geometry">
            <mxPoint x="60" y="520" as="sourcePoint" />
            <mxPoint x="60" y="490" as="targetPoint" />
          </mxGeometry>
        </mxCell>
        <mxCell id="NVPbH-vFN47MmLZfurPB-2" value="" style="endArrow=classic;html=1;rounded=0;strokeWidth=1;fontFamily=Georgia;fontSize=14;" edge="1" parent="1">
          <mxGeometry width="50" height="50" relative="1" as="geometry">
            <mxPoint x="60" y="520" as="sourcePoint" />
            <mxPoint x="200" y="520" as="targetPoint" />
          </mxGeometry>
        </mxCell>
        <mxCell id="NVPbH-vFN47MmLZfurPB-3" value="&lt;span style=&quot;font-family: Georgia;&quot;&gt;AIP&lt;/span&gt;" style="rhombus;whiteSpace=wrap;html=1;fillColor=#d5e8d4;strokeColor=#82b366;rounded=1;" vertex="1" parent="1">
          <mxGeometry x="20" y="410" width="80" height="80" as="geometry" />
        </mxCell>
        <mxCell id="NVPbH-vFN47MmLZfurPB-5" value="" style="endArrow=none;html=1;rounded=0;strokeWidth=1;fontFamily=Georgia;fontSize=14;" edge="1" parent="1" source="NVPbH-vFN47MmLZfurPB-3">
          <mxGeometry width="50" height="50" relative="1" as="geometry">
            <mxPoint x="260" y="510" as="sourcePoint" />
            <mxPoint x="160" y="450" as="targetPoint" />
          </mxGeometry>
        </mxCell>
        <mxCell id="NVPbH-vFN47MmLZfurPB-6" value="" style="endArrow=classic;html=1;rounded=0;strokeWidth=1;fontFamily=Georgia;fontSize=14;" edge="1" parent="1">
          <mxGeometry width="50" height="50" relative="1" as="geometry">
            <mxPoint x="160" y="450" as="sourcePoint" />
            <mxPoint x="160" y="520" as="targetPoint" />
          </mxGeometry>
        </mxCell>
        <mxCell id="NVPbH-vFN47MmLZfurPB-7" value="&lt;font face=&quot;Georgia&quot;&gt;Original&lt;br&gt;&amp;nbsp;+ &lt;br&gt;AIP_Original&lt;/font&gt;" style="shape=cylinder3;whiteSpace=wrap;html=1;boundedLbl=1;backgroundOutline=1;size=15;fillColor=#f5f5f5;fontColor=#333333;strokeColor=#666666;" vertex="1" parent="1">
          <mxGeometry x="200" y="440" width="120" height="140" as="geometry" />
        </mxCell>
        <mxCell id="NVPbH-vFN47MmLZfurPB-8" value="" style="endArrow=classic;html=1;rounded=0;strokeWidth=1;fontFamily=Georgia;fontSize=14;exitX=0.5;exitY=0;exitDx=0;exitDy=0;exitPerimeter=0;" edge="1" parent="1" source="NVPbH-vFN47MmLZfurPB-7">
          <mxGeometry width="50" height="50" relative="1" as="geometry">
            <mxPoint x="260" y="430" as="sourcePoint" />
            <mxPoint x="260" y="370" as="targetPoint" />
          </mxGeometry>
        </mxCell>
        <mxCell id="NVPbH-vFN47MmLZfurPB-9" value="&lt;span style=&quot;font-family: Georgia;&quot;&gt;AWN&lt;/span&gt;" style="rhombus;whiteSpace=wrap;html=1;fillColor=#d5e8d4;strokeColor=#82b366;rounded=1;" vertex="1" parent="1">
          <mxGeometry x="220" y="290" width="80" height="80" as="geometry" />
        </mxCell>
        <mxCell id="NVPbH-vFN47MmLZfurPB-10" value="" style="endArrow=classic;html=1;rounded=0;strokeWidth=1;fontFamily=Georgia;fontSize=14;" edge="1" parent="1">
          <mxGeometry width="50" height="50" relative="1" as="geometry">
            <mxPoint x="260" y="400" as="sourcePoint" />
            <mxPoint x="400" y="400" as="targetPoint" />
          </mxGeometry>
        </mxCell>
        <mxCell id="NVPbH-vFN47MmLZfurPB-12" value="" style="endArrow=none;html=1;rounded=0;strokeWidth=1;fontFamily=Georgia;fontSize=14;" edge="1" parent="1">
          <mxGeometry width="50" height="50" relative="1" as="geometry">
            <mxPoint x="300" y="330" as="sourcePoint" />
            <mxPoint x="340" y="330" as="targetPoint" />
          </mxGeometry>
        </mxCell>
        <mxCell id="NVPbH-vFN47MmLZfurPB-13" value="" style="endArrow=classic;html=1;rounded=0;strokeWidth=1;fontFamily=Georgia;fontSize=14;" edge="1" parent="1">
          <mxGeometry width="50" height="50" relative="1" as="geometry">
            <mxPoint x="340" y="330" as="sourcePoint" />
            <mxPoint x="340" y="400" as="targetPoint" />
          </mxGeometry>
        </mxCell>
        <mxCell id="NVPbH-vFN47MmLZfurPB-14" value="&lt;font face=&quot;Georgia&quot;&gt;Original&lt;br&gt;&amp;nbsp;+ &lt;br&gt;AIP_Original&lt;br&gt;+&lt;br&gt;AWN_Original&lt;br&gt;+&lt;br&gt;AWN_AIP_Original&lt;br&gt;&lt;/font&gt;" style="shape=cylinder3;whiteSpace=wrap;html=1;boundedLbl=1;backgroundOutline=1;size=15;fillColor=#f5f5f5;fontColor=#333333;strokeColor=#666666;" vertex="1" parent="1">
          <mxGeometry x="400" y="300" width="120" height="160" as="geometry" />
        </mxCell>
        <mxCell id="Y-n-VNNWfPh7M75uVoov-1" value="&lt;i&gt;&lt;font style=&quot;font-size: 18px;&quot; face=&quot;Georgia&quot;&gt;X&lt;br&gt;#1424&lt;br&gt;&lt;/font&gt;&lt;/i&gt;" style="rounded=0;whiteSpace=wrap;html=1;strokeColor=#FFFFFF;" vertex="1" parent="1">
          <mxGeometry x="30" y="690" width="50" height="20" as="geometry" />
        </mxCell>
        <mxCell id="Y-n-VNNWfPh7M75uVoov-2" value="&lt;i&gt;&lt;font style=&quot;font-size: 18px;&quot; face=&quot;Georgia&quot;&gt;2¹ * X&lt;/font&gt;&lt;/i&gt;" style="rounded=0;whiteSpace=wrap;html=1;strokeColor=#FFFFFF;" vertex="1" parent="1">
          <mxGeometry x="220" y="590" width="60" height="20" as="geometry" />
        </mxCell>
        <mxCell id="Y-n-VNNWfPh7M75uVoov-3" value="&lt;i&gt;&lt;font style=&quot;font-size: 18px;&quot; face=&quot;Georgia&quot;&gt;2² * X&lt;/font&gt;&lt;/i&gt;" style="rounded=0;whiteSpace=wrap;html=1;strokeColor=#FFFFFF;" vertex="1" parent="1">
          <mxGeometry x="430" y="490" width="60" height="20" as="geometry" />
        </mxCell>
        <mxCell id="dIcKkE1NCumFB7nZb6uK-1" value="&lt;i&gt;&lt;font style=&quot;font-size: 18px;&quot; face=&quot;Georgia&quot;&gt;Audio Data Augmentation&amp;nbsp;&lt;/font&gt;&lt;/i&gt;" style="rounded=0;whiteSpace=wrap;html=1;strokeColor=#666666;fillColor=#f5f5f5;fontColor=#333333;" vertex="1" parent="1">
          <mxGeometry x="320" y="650" width="250" height="20" as="geometry" />
        </mxCell>
        <mxCell id="Ckc9qR0uxBbdXIFEI3ww-1" value="" style="endArrow=none;dashed=1;html=1;rounded=0;strokeWidth=2;fontFamily=Georgia;fontSize=14;" edge="1" parent="1">
          <mxGeometry width="50" height="50" relative="1" as="geometry">
            <mxPoint x="530" y="379.84999999999997" as="sourcePoint" />
            <mxPoint x="590" y="380" as="targetPoint" />
            <Array as="points" />
          </mxGeometry>
        </mxCell>
        <mxCell id="M1CyqpbBJAT9Zw26-Vnh-2" value="" style="endArrow=none;dashed=1;html=1;rounded=0;strokeWidth=2;fontFamily=Georgia;fontSize=14;" edge="1" parent="1">
          <mxGeometry width="50" height="50" relative="1" as="geometry">
            <mxPoint x="460" y="290" as="sourcePoint" />
            <mxPoint x="460" y="240" as="targetPoint" />
            <Array as="points" />
          </mxGeometry>
        </mxCell>
        <mxCell id="M1CyqpbBJAT9Zw26-Vnh-3" value="" style="endArrow=classic;html=1;rounded=0;strokeWidth=2;fontFamily=Georgia;fontSize=14;" edge="1" parent="1">
          <mxGeometry width="50" height="50" relative="1" as="geometry">
            <mxPoint x="460" y="250" as="sourcePoint" />
            <mxPoint x="460" y="230" as="targetPoint" />
          </mxGeometry>
        </mxCell>
        <mxCell id="nvZiOs6Ns-D-axxmNQym-1" value="&lt;span style=&quot;font-family: Georgia;&quot;&gt;APS&lt;/span&gt;" style="rhombus;whiteSpace=wrap;html=1;fillColor=#d5e8d4;strokeColor=#82b366;rounded=1;" vertex="1" parent="1">
          <mxGeometry x="420" y="150" width="80" height="80" as="geometry" />
        </mxCell>
        <mxCell id="nvZiOs6Ns-D-axxmNQym-2" value="" style="endArrow=none;html=1;rounded=0;strokeWidth=1;fontFamily=Georgia;fontSize=14;exitX=1;exitY=0.5;exitDx=0;exitDy=0;" edge="1" parent="1" source="nvZiOs6Ns-D-axxmNQym-1">
          <mxGeometry width="50" height="50" relative="1" as="geometry">
            <mxPoint x="310" y="340" as="sourcePoint" />
            <mxPoint x="560" y="190" as="targetPoint" />
          </mxGeometry>
        </mxCell>
        <mxCell id="nvZiOs6Ns-D-axxmNQym-3" value="" style="endArrow=classic;html=1;rounded=0;strokeWidth=1;fontFamily=Georgia;fontSize=14;" edge="1" parent="1">
          <mxGeometry width="50" height="50" relative="1" as="geometry">
            <mxPoint x="560" y="190" as="sourcePoint" />
            <mxPoint x="560" y="370" as="targetPoint" />
          </mxGeometry>
        </mxCell>
        <mxCell id="nvZiOs6Ns-D-axxmNQym-4" value="" style="endArrow=classic;html=1;rounded=0;strokeWidth=2;fontFamily=Georgia;fontSize=14;" edge="1" parent="1">
          <mxGeometry width="50" height="50" relative="1" as="geometry">
            <mxPoint x="590" y="379.86" as="sourcePoint" />
            <mxPoint x="610" y="380" as="targetPoint" />
            <Array as="points" />
          </mxGeometry>
        </mxCell>
        <mxCell id="nvZiOs6Ns-D-axxmNQym-5" value="&lt;font face=&quot;Georgia&quot;&gt;Original&lt;br&gt;&amp;nbsp;+ &lt;br&gt;AIP&lt;br&gt;+&lt;br&gt;AWN_Original&lt;br&gt;+&lt;br&gt;AWN_AIP&lt;br&gt;+&lt;br&gt;&lt;br&gt;&lt;br&gt;+&lt;br&gt;APS_AWN_..._AIP_Original&lt;br&gt;&lt;/font&gt;" style="shape=cylinder3;whiteSpace=wrap;html=1;boundedLbl=1;backgroundOutline=1;size=15;fillColor=#dae8fc;strokeColor=#6c8ebf;" vertex="1" parent="1">
          <mxGeometry x="630" y="280" width="160" height="220" as="geometry" />
        </mxCell>
        <mxCell id="DtmLewtXLUJ-fFA1eWdr-1" value="" style="endArrow=none;dashed=1;html=1;dashPattern=1 3;strokeWidth=2;rounded=0;fontFamily=Georgia;fontSize=18;" edge="1" parent="1">
          <mxGeometry width="50" height="50" relative="1" as="geometry">
            <mxPoint x="709.71" y="460" as="sourcePoint" />
            <mxPoint x="709.71" y="440" as="targetPoint" />
            <Array as="points">
              <mxPoint x="710" y="450" />
            </Array>
          </mxGeometry>
        </mxCell>
        <mxCell id="DtmLewtXLUJ-fFA1eWdr-3" value="&lt;i&gt;&lt;font style=&quot;font-size: 18px;&quot; face=&quot;Georgia&quot;&gt;2⁵ * X = 32*X&lt;br&gt;#45568&lt;br&gt;&lt;/font&gt;&lt;/i&gt;" style="rounded=0;whiteSpace=wrap;html=1;strokeColor=#FFFFFF;" vertex="1" parent="1">
          <mxGeometry x="635" y="530" width="150" height="20" as="geometry" />
        </mxCell>
        <mxCell id="DtmLewtXLUJ-fFA1eWdr-5" value="" style="endArrow=none;dashed=1;html=1;rounded=0;strokeWidth=2;fontFamily=Georgia;fontSize=18;" edge="1" parent="1">
          <mxGeometry width="50" height="50" relative="1" as="geometry">
            <mxPoint x="530" y="240" as="sourcePoint" />
            <mxPoint x="600" y="180" as="targetPoint" />
          </mxGeometry>
        </mxCell>
        <mxCell id="DtmLewtXLUJ-fFA1eWdr-6" value="" style="endArrow=classic;html=1;rounded=0;strokeWidth=2;fontFamily=Georgia;fontSize=14;" edge="1" parent="1">
          <mxGeometry width="50" height="50" relative="1" as="geometry">
            <mxPoint x="590" y="190" as="sourcePoint" />
            <mxPoint x="600" y="180" as="targetPoint" />
          </mxGeometry>
        </mxCell>
        <mxCell id="DtmLewtXLUJ-fFA1eWdr-7" value="&lt;span style=&quot;font-family: Georgia;&quot;&gt;ARG&lt;/span&gt;" style="rhombus;whiteSpace=wrap;html=1;fillColor=#d5e8d4;strokeColor=#82b366;rounded=1;" vertex="1" parent="1">
          <mxGeometry x="600" y="120" width="60" height="60" as="geometry" />
        </mxCell>
        <mxCell id="DtmLewtXLUJ-fFA1eWdr-8" value="" style="rounded=1;whiteSpace=wrap;html=1;dashed=1;fontFamily=Georgia;fontSize=18;fillColor=none;" vertex="1" parent="1">
          <mxGeometry x="600" y="120" width="130" height="60" as="geometry" />
        </mxCell>
        <mxCell id="DtmLewtXLUJ-fFA1eWdr-9" value="&lt;span style=&quot;font-family: Georgia;&quot;&gt;ATS&lt;/span&gt;" style="rhombus;whiteSpace=wrap;html=1;fillColor=#d5e8d4;strokeColor=#82b366;rounded=1;" vertex="1" parent="1">
          <mxGeometry x="670" y="120" width="60" height="60" as="geometry" />
        </mxCell>
        <mxCell id="T4ODfQJBS0JVsPMSSbOh-2" value="1" style="ellipse;whiteSpace=wrap;html=1;aspect=fixed;strokeColor=#000000;fontFamily=Georgia;fontSize=18;fillColor=#FFFFFF;gradientColor=none;strokeWidth=1;" vertex="1" parent="1">
          <mxGeometry x="90" y="480" width="30" height="30" as="geometry" />
        </mxCell>
        <mxCell id="T4ODfQJBS0JVsPMSSbOh-3" value="2" style="ellipse;whiteSpace=wrap;html=1;aspect=fixed;strokeColor=#000000;fontFamily=Georgia;fontSize=18;fillColor=#FFFFFF;gradientColor=none;strokeWidth=1;" vertex="1" parent="1">
          <mxGeometry x="290" y="360" width="30" height="30" as="geometry" />
        </mxCell>
        <mxCell id="T4ODfQJBS0JVsPMSSbOh-4" value="3" style="ellipse;whiteSpace=wrap;html=1;aspect=fixed;strokeColor=#000000;fontFamily=Georgia;fontSize=18;fillColor=#FFFFFF;gradientColor=none;strokeWidth=1;" vertex="1" parent="1">
          <mxGeometry x="470" y="260" width="30" height="30" as="geometry" />
        </mxCell>
        <mxCell id="T4ODfQJBS0JVsPMSSbOh-5" value="4" style="ellipse;whiteSpace=wrap;html=1;aspect=fixed;strokeColor=#000000;fontFamily=Georgia;fontSize=18;fillColor=#FFFFFF;gradientColor=none;strokeWidth=1;dashed=1;" vertex="1" parent="1">
          <mxGeometry x="510" y="220" width="20" height="20" as="geometry" />
        </mxCell>
        <mxCell id="T4ODfQJBS0JVsPMSSbOh-6" value="5" style="ellipse;whiteSpace=wrap;html=1;aspect=fixed;strokeColor=#000000;fontFamily=Georgia;fontSize=18;fillColor=#FFFFFF;gradientColor=none;strokeWidth=1;dashed=1;" vertex="1" parent="1">
          <mxGeometry x="530" y="240" width="20" height="20" as="geometry" />
        </mxCell>
        <mxCell id="T4ODfQJBS0JVsPMSSbOh-9" value="" style="shape=curlyBracket;whiteSpace=wrap;html=1;rounded=1;strokeColor=#000000;strokeWidth=2;fontFamily=Georgia;fontSize=18;fillColor=#FFFFFF;gradientColor=none;" vertex="1" parent="1">
          <mxGeometry x="-10" y="200" width="20" height="140" as="geometry" />
        </mxCell>
        <mxCell id="T4ODfQJBS0JVsPMSSbOh-11" value="&lt;font style=&quot;font-size: 13px;&quot;&gt;&lt;span style=&quot;white-space: pre;&quot;&gt;	&lt;/span&gt;&lt;span style=&quot;white-space: pre;&quot;&gt;	&lt;/span&gt;&lt;span style=&quot;white-space: pre;&quot;&gt;	&lt;/span&gt;&lt;span style=&quot;white-space: pre;&quot;&gt;	&lt;/span&gt;AIP: Add Invert Polarity&lt;/font&gt;" style="text;html=1;align=center;verticalAlign=middle;resizable=0;points=[];autosize=1;strokeColor=none;fillColor=none;fontSize=18;fontFamily=Georgia;" vertex="1" parent="1">
          <mxGeometry x="-90" y="180" width="260" height="40" as="geometry" />
        </mxCell>
        <mxCell id="T4ODfQJBS0JVsPMSSbOh-12" value="&lt;span style=&quot;color: rgb(0, 0, 0); font-family: Georgia; font-size: 13px; font-style: normal; font-variant-ligatures: normal; font-variant-caps: normal; font-weight: 400; letter-spacing: normal; orphans: 2; text-align: center; text-indent: 0px; text-transform: none; widows: 2; word-spacing: 0px; -webkit-text-stroke-width: 0px; background-color: rgb(255, 255, 255); text-decoration-thickness: initial; text-decoration-style: initial; text-decoration-color: initial;&quot;&gt;	&lt;/span&gt;&lt;span style=&quot;color: rgb(0, 0, 0); font-family: Georgia; font-size: 13px; font-style: normal; font-variant-ligatures: normal; font-variant-caps: normal; font-weight: 400; letter-spacing: normal; orphans: 2; text-align: center; text-indent: 0px; text-transform: none; widows: 2; word-spacing: 0px; -webkit-text-stroke-width: 0px; background-color: rgb(255, 255, 255); text-decoration-thickness: initial; text-decoration-style: initial; text-decoration-color: initial;&quot;&gt;	&lt;/span&gt;&lt;span style=&quot;color: rgb(0, 0, 0); font-family: Georgia; font-size: 13px; font-style: normal; font-variant-ligatures: normal; font-variant-caps: normal; font-weight: 400; letter-spacing: normal; orphans: 2; text-align: center; text-indent: 0px; text-transform: none; widows: 2; word-spacing: 0px; -webkit-text-stroke-width: 0px; background-color: rgb(255, 255, 255); text-decoration-thickness: initial; text-decoration-style: initial; text-decoration-color: initial;&quot;&gt;	&lt;/span&gt;&lt;span style=&quot;color: rgb(0, 0, 0); font-family: Georgia; font-size: 13px; font-style: normal; font-variant-ligatures: normal; font-variant-caps: normal; font-weight: 400; letter-spacing: normal; orphans: 2; text-align: center; text-indent: 0px; text-transform: none; widows: 2; word-spacing: 0px; -webkit-text-stroke-width: 0px; background-color: rgb(255, 255, 255); text-decoration-thickness: initial; text-decoration-style: initial; text-decoration-color: initial;&quot;&gt;	&lt;/span&gt;&lt;span style=&quot;color: rgb(0, 0, 0); font-family: Georgia; font-size: 13px; font-style: normal; font-variant-ligatures: normal; font-variant-caps: normal; font-weight: 400; letter-spacing: normal; orphans: 2; text-align: center; text-indent: 0px; text-transform: none; widows: 2; word-spacing: 0px; -webkit-text-stroke-width: 0px; background-color: rgb(255, 255, 255); text-decoration-thickness: initial; text-decoration-style: initial; text-decoration-color: initial; float: none; display: inline !important;&quot;&gt;AWN: Add White Noise&lt;/span&gt;" style="text;whiteSpace=wrap;html=1;fontSize=13;fontFamily=Georgia;" vertex="1" parent="1">
          <mxGeometry x="10" y="220" width="170" height="40" as="geometry" />
        </mxCell>
        <mxCell id="pb5obXztxbSKqinW0jiO-1" value="&lt;span style=&quot;color: rgb(0, 0, 0); font-family: Georgia; font-size: 13px; font-style: normal; font-variant-ligatures: normal; font-variant-caps: normal; font-weight: 400; letter-spacing: normal; orphans: 2; text-align: center; text-indent: 0px; text-transform: none; widows: 2; word-spacing: 0px; -webkit-text-stroke-width: 0px; background-color: rgb(255, 255, 255); text-decoration-thickness: initial; text-decoration-style: initial; text-decoration-color: initial;&quot;&gt;	&lt;/span&gt;&lt;span style=&quot;color: rgb(0, 0, 0); font-family: Georgia; font-size: 13px; font-style: normal; font-variant-ligatures: normal; font-variant-caps: normal; font-weight: 400; letter-spacing: normal; orphans: 2; text-align: center; text-indent: 0px; text-transform: none; widows: 2; word-spacing: 0px; -webkit-text-stroke-width: 0px; background-color: rgb(255, 255, 255); text-decoration-thickness: initial; text-decoration-style: initial; text-decoration-color: initial;&quot;&gt;	&lt;/span&gt;&lt;span style=&quot;color: rgb(0, 0, 0); font-family: Georgia; font-size: 13px; font-style: normal; font-variant-ligatures: normal; font-variant-caps: normal; font-weight: 400; letter-spacing: normal; orphans: 2; text-align: center; text-indent: 0px; text-transform: none; widows: 2; word-spacing: 0px; -webkit-text-stroke-width: 0px; background-color: rgb(255, 255, 255); text-decoration-thickness: initial; text-decoration-style: initial; text-decoration-color: initial;&quot;&gt;	&lt;/span&gt;&lt;span style=&quot;color: rgb(0, 0, 0); font-family: Georgia; font-size: 13px; font-style: normal; font-variant-ligatures: normal; font-variant-caps: normal; font-weight: 400; letter-spacing: normal; orphans: 2; text-align: center; text-indent: 0px; text-transform: none; widows: 2; word-spacing: 0px; -webkit-text-stroke-width: 0px; background-color: rgb(255, 255, 255); text-decoration-thickness: initial; text-decoration-style: initial; text-decoration-color: initial;&quot;&gt;	&lt;/span&gt;&lt;span style=&quot;color: rgb(0, 0, 0); font-family: Georgia; font-size: 13px; font-style: normal; font-variant-ligatures: normal; font-variant-caps: normal; font-weight: 400; letter-spacing: normal; orphans: 2; text-align: center; text-indent: 0px; text-transform: none; widows: 2; word-spacing: 0px; -webkit-text-stroke-width: 0px; background-color: rgb(255, 255, 255); text-decoration-thickness: initial; text-decoration-style: initial; text-decoration-color: initial; float: none; display: inline !important;&quot;&gt;APS: Add Pitch Scale&lt;/span&gt;" style="text;whiteSpace=wrap;html=1;fontSize=13;fontFamily=Georgia;" vertex="1" parent="1">
          <mxGeometry x="20" y="255" width="170" height="40" as="geometry" />
        </mxCell>
        <mxCell id="pb5obXztxbSKqinW0jiO-2" value="&lt;span style=&quot;color: rgb(0, 0, 0); font-family: Georgia; font-size: 13px; font-style: normal; font-variant-ligatures: normal; font-variant-caps: normal; font-weight: 400; letter-spacing: normal; orphans: 2; text-align: center; text-indent: 0px; text-transform: none; widows: 2; word-spacing: 0px; -webkit-text-stroke-width: 0px; background-color: rgb(255, 255, 255); text-decoration-thickness: initial; text-decoration-style: initial; text-decoration-color: initial;&quot;&gt;	&lt;/span&gt;&lt;span style=&quot;color: rgb(0, 0, 0); font-family: Georgia; font-size: 13px; font-style: normal; font-variant-ligatures: normal; font-variant-caps: normal; font-weight: 400; letter-spacing: normal; orphans: 2; text-align: center; text-indent: 0px; text-transform: none; widows: 2; word-spacing: 0px; -webkit-text-stroke-width: 0px; background-color: rgb(255, 255, 255); text-decoration-thickness: initial; text-decoration-style: initial; text-decoration-color: initial;&quot;&gt;	&lt;/span&gt;&lt;span style=&quot;color: rgb(0, 0, 0); font-family: Georgia; font-size: 13px; font-style: normal; font-variant-ligatures: normal; font-variant-caps: normal; font-weight: 400; letter-spacing: normal; orphans: 2; text-align: center; text-indent: 0px; text-transform: none; widows: 2; word-spacing: 0px; -webkit-text-stroke-width: 0px; background-color: rgb(255, 255, 255); text-decoration-thickness: initial; text-decoration-style: initial; text-decoration-color: initial;&quot;&gt;	&lt;/span&gt;&lt;span style=&quot;color: rgb(0, 0, 0); font-family: Georgia; font-size: 13px; font-style: normal; font-variant-ligatures: normal; font-variant-caps: normal; font-weight: 400; letter-spacing: normal; orphans: 2; text-align: center; text-indent: 0px; text-transform: none; widows: 2; word-spacing: 0px; -webkit-text-stroke-width: 0px; background-color: rgb(255, 255, 255); text-decoration-thickness: initial; text-decoration-style: initial; text-decoration-color: initial;&quot;&gt;	&lt;/span&gt;&lt;span style=&quot;color: rgb(0, 0, 0); font-family: Georgia; font-size: 13px; font-style: normal; font-variant-ligatures: normal; font-variant-caps: normal; font-weight: 400; letter-spacing: normal; orphans: 2; text-align: center; text-indent: 0px; text-transform: none; widows: 2; word-spacing: 0px; -webkit-text-stroke-width: 0px; background-color: rgb(255, 255, 255); text-decoration-thickness: initial; text-decoration-style: initial; text-decoration-color: initial; float: none; display: inline !important;&quot;&gt;ATS: Add Time Stetch&lt;/span&gt;" style="text;whiteSpace=wrap;html=1;fontSize=13;fontFamily=Georgia;" vertex="1" parent="1">
          <mxGeometry x="20" y="290" width="170" height="40" as="geometry" />
        </mxCell>
        <mxCell id="pb5obXztxbSKqinW0jiO-3" value="&lt;span style=&quot;color: rgb(0, 0, 0); font-family: Georgia; font-size: 13px; font-style: normal; font-variant-ligatures: normal; font-variant-caps: normal; font-weight: 400; letter-spacing: normal; orphans: 2; text-align: center; text-indent: 0px; text-transform: none; widows: 2; word-spacing: 0px; -webkit-text-stroke-width: 0px; background-color: rgb(255, 255, 255); text-decoration-thickness: initial; text-decoration-style: initial; text-decoration-color: initial;&quot;&gt;	&lt;/span&gt;&lt;span style=&quot;color: rgb(0, 0, 0); font-family: Georgia; font-size: 13px; font-style: normal; font-variant-ligatures: normal; font-variant-caps: normal; font-weight: 400; letter-spacing: normal; orphans: 2; text-align: center; text-indent: 0px; text-transform: none; widows: 2; word-spacing: 0px; -webkit-text-stroke-width: 0px; background-color: rgb(255, 255, 255); text-decoration-thickness: initial; text-decoration-style: initial; text-decoration-color: initial;&quot;&gt;	&lt;/span&gt;&lt;span style=&quot;color: rgb(0, 0, 0); font-family: Georgia; font-size: 13px; font-style: normal; font-variant-ligatures: normal; font-variant-caps: normal; font-weight: 400; letter-spacing: normal; orphans: 2; text-align: center; text-indent: 0px; text-transform: none; widows: 2; word-spacing: 0px; -webkit-text-stroke-width: 0px; background-color: rgb(255, 255, 255); text-decoration-thickness: initial; text-decoration-style: initial; text-decoration-color: initial;&quot;&gt;	&lt;/span&gt;&lt;span style=&quot;color: rgb(0, 0, 0); font-family: Georgia; font-size: 13px; font-style: normal; font-variant-ligatures: normal; font-variant-caps: normal; font-weight: 400; letter-spacing: normal; orphans: 2; text-align: center; text-indent: 0px; text-transform: none; widows: 2; word-spacing: 0px; -webkit-text-stroke-width: 0px; background-color: rgb(255, 255, 255); text-decoration-thickness: initial; text-decoration-style: initial; text-decoration-color: initial;&quot;&gt;	&lt;/span&gt;&lt;span style=&quot;color: rgb(0, 0, 0); font-family: Georgia; font-size: 13px; font-style: normal; font-variant-ligatures: normal; font-variant-caps: normal; font-weight: 400; letter-spacing: normal; orphans: 2; text-align: center; text-indent: 0px; text-transform: none; widows: 2; word-spacing: 0px; -webkit-text-stroke-width: 0px; background-color: rgb(255, 255, 255); text-decoration-thickness: initial; text-decoration-style: initial; text-decoration-color: initial; float: none; display: inline !important;&quot;&gt;ARG: Add Random Gain&lt;/span&gt;" style="text;whiteSpace=wrap;html=1;fontSize=13;fontFamily=Georgia;" vertex="1" parent="1">
          <mxGeometry x="20" y="320" width="170" height="40" as="geometry" />
        </mxCell>
      </root>
    </mxGraphModel>
  </diagram>
  <diagram id="01LI8YgHSwjDs-MR8Szb" name="Page-3">
    <mxGraphModel dx="1594" dy="773" grid="1" gridSize="10" guides="1" tooltips="1" connect="1" arrows="1" fold="1" page="0" pageScale="1" pageWidth="1169" pageHeight="827" math="0" shadow="0">
      <root>
        <mxCell id="0" />
        <mxCell id="1" parent="0" />
      </root>
    </mxGraphModel>
  </diagram>
</mxfile>
